<?xml version="1.0" standalone="no"?>
<!DOCTYPE svg PUBLIC "-//W3C//DTD SVG 20010904//EN"
 "http://www.w3.org/TR/2001/REC-SVG-20010904/DTD/svg10.dtd">
<svg version="1.0" xmlns="http://www.w3.org/2000/svg"
 width="50.000000pt" height="50.000000pt" viewBox="0 0 50.000000 50.000000"
 preserveAspectRatio="xMidYMid meet">

<g transform="translate(0.000000,50.000000) scale(0.100000,-0.100000)"
fill="#000000" stroke="none">
<path d="M314 466 c-3 -9 -3 -27 0 -40 4 -15 -4 -51 -20 -92 -22 -58 -25 -78
-19 -124 8 -53 8 -91 3 -155 l-3 -30 90 0 90 0 -3 30 c-5 67 -5 102 3 152 6
44 4 63 -16 115 -13 35 -23 83 -24 108 l0 45 -48 3 c-35 2 -49 -1 -53 -12z
m86 -16 c0 -5 -16 -10 -35 -10 -19 0 -35 5 -35 10 0 6 16 10 35 10 19 0 35 -4
35 -10z m-1 -71 c7 -23 15 -47 18 -55 3 -8 1 -14 -5 -14 -5 0 -13 11 -16 25
-4 14 -11 25 -16 25 -6 0 -8 -11 -4 -25 5 -19 2 -25 -11 -25 -13 0 -16 6 -11
25 4 14 2 25 -4 25 -5 0 -12 -11 -16 -25 -3 -14 -11 -25 -16 -25 -6 0 -8 6 -5
14 3 8 11 32 18 55 9 32 17 41 34 41 17 0 25 -9 34 -41z m39 -131 l3 -38 -75
0 -76 0 0 33 c0 19 3 37 7 41 4 4 37 6 73 4 l65 -3 3 -37z m-114 -93 c7 -37
-11 -115 -27 -115 -5 0 -6 9 -1 23 4 12 7 46 7 75 -1 59 11 70 21 17z m63 -17
c0 -29 3 -63 7 -75 8 -21 5 -23 -29 -23 -34 0 -37 2 -29 23 4 12 7 46 7 75 -1
48 1 52 22 52 21 0 23 -4 22 -52z m40 0 c0 -29 3 -63 7 -75 5 -14 4 -23 -1
-23 -16 0 -34 78 -27 115 10 53 22 42 21 -17z"/>
<path d="M104 404 c-38 -18 -64 -62 -64 -106 0 -18 7 -82 15 -143 11 -80 19
-113 32 -122 17 -13 129 -18 157 -7 31 12 16 24 -22 18 -30 -5 -41 -2 -56 15
-37 40 -30 165 10 206 8 8 33 19 54 25 65 17 47 50 -43 81 -24 9 -41 10 -45 4
-12 -17 -73 -57 -79 -52 -10 11 19 47 49 63 43 22 111 14 145 -17 23 -22 25
-23 22 -4 -5 25 -64 55 -109 55 -19 0 -49 -7 -66 -16z m120 -78 c9 3 16 2 16
-3 0 -18 -84 -39 -118 -29 -37 10 -40 21 -13 36 27 14 41 13 41 -5 0 -8 5 -15
10 -15 6 0 10 12 10 28 l1 27 18 -23 c12 -13 25 -20 35 -16z m-115 -47 c27 -9
32 -15 26 -33 -16 -55 -17 -132 -2 -169 15 -34 15 -37 -1 -37 -36 0 -44 18
-58 121 -19 147 -22 138 35 118z"/>
<path d="M180 185 c0 -8 7 -15 15 -15 8 0 15 7 15 15 0 8 -7 15 -15 15 -8 0
-15 -7 -15 -15z"/>
<path d="M210 150 c0 -5 5 -10 10 -10 6 0 10 5 10 10 0 6 -4 10 -10 10 -5 0
-10 -4 -10 -10z"/>
</g>
</svg>
