<?xml version="1.0" standalone="no"?>
<!DOCTYPE svg PUBLIC "-//W3C//DTD SVG 20010904//EN"
 "http://www.w3.org/TR/2001/REC-SVG-20010904/DTD/svg10.dtd">
<svg version="1.0" xmlns="http://www.w3.org/2000/svg"
 width="64.000000pt" height="64.000000pt" viewBox="0 0 64.000000 64.000000"
 preserveAspectRatio="xMidYMid meet">

<g transform="translate(0.000000,64.000000) scale(0.100000,-0.100000)"
fill="#000000" stroke="none">
<path d="M263 620 c-24 -14 -54 -20 -115 -22 l-83 -3 0 -285 0 -285 255 0 255
0 0 285 0 285 -83 3 c-61 2 -91 8 -115 22 -41 25 -73 25 -114 0z m114 -25 c32
-19 43 -32 43 -50 0 -25 0 -25 -100 -25 -99 0 -100 0 -100 24 0 19 11 31 43
50 52 32 60 32 114 1z m-174 -34 c-4 -14 -15 -21 -42 -23 l-36 -3 0 -225 0
-225 155 -3 155 -2 43 43 42 43 -2 185 -3 184 -36 3 c-27 2 -38 9 -42 23 -5
17 0 19 59 19 l64 0 0 -270 0 -270 -240 0 -240 0 0 270 0 270 64 0 c59 0 64
-2 59 -19z m2 -51 c4 -6 53 -10 115 -10 62 0 111 4 115 10 3 6 19 10 36 10
l29 0 0 -169 0 -170 -37 -3 c-36 -3 -38 -5 -41 -40 l-3 -38 -140 0 -139 0 0
210 0 210 29 0 c17 0 33 -4 36 -10z m275 -353 c0 -2 -9 -12 -20 -22 -19 -18
-20 -17 -20 3 0 15 6 22 20 22 11 0 20 -2 20 -3z"/>
<path d="M304 589 c-10 -17 13 -36 27 -22 12 12 4 33 -11 33 -5 0 -12 -5 -16
-11z"/>
<path d="M160 460 c0 -11 5 -20 10 -20 6 0 10 9 10 20 0 11 -4 20 -10 20 -5 0
-10 -9 -10 -20z"/>
<path d="M210 460 c0 -11 5 -20 10 -20 6 0 10 9 10 20 0 11 -4 20 -10 20 -5 0
-10 -9 -10 -20z"/>
<path d="M260 460 c0 -11 5 -20 10 -20 6 0 10 9 10 20 0 11 -4 20 -10 20 -5 0
-10 -9 -10 -20z"/>
<path d="M310 460 c0 -11 5 -20 10 -20 6 0 10 9 10 20 0 11 -4 20 -10 20 -5 0
-10 -9 -10 -20z"/>
<path d="M360 460 c0 -11 5 -20 10 -20 6 0 10 9 10 20 0 11 -4 20 -10 20 -5 0
-10 -9 -10 -20z"/>
<path d="M410 460 c0 -11 5 -20 10 -20 6 0 10 9 10 20 0 11 -4 20 -10 20 -5 0
-10 -9 -10 -20z"/>
<path d="M460 460 c0 -11 5 -20 10 -20 6 0 10 9 10 20 0 11 -4 20 -10 20 -5 0
-10 -9 -10 -20z"/>
<path d="M198 383 c-20 -5 -23 -18 -8 -28 12 -7 40 12 40 26 0 9 -4 10 -32 2z"/>
<path d="M260 370 c0 -6 40 -10 100 -10 60 0 100 4 100 10 0 6 -40 10 -100 10
-60 0 -100 -4 -100 -10z"/>
<path d="M198 323 c-20 -5 -23 -18 -8 -28 12 -7 40 12 40 26 0 9 -4 10 -32 2z"/>
<path d="M260 310 c0 -6 33 -10 80 -10 47 0 80 4 80 10 0 6 -33 10 -80 10 -47
0 -80 -4 -80 -10z"/>
<path d="M198 263 c-20 -5 -23 -18 -8 -28 12 -7 40 12 40 26 0 9 -4 10 -32 2z"/>
<path d="M260 250 c0 -6 37 -10 90 -10 53 0 90 4 90 10 0 6 -37 10 -90 10 -53
0 -90 -4 -90 -10z"/>
<path d="M198 203 c-20 -5 -23 -18 -8 -28 12 -7 40 12 40 26 0 9 -4 10 -32 2z"/>
<path d="M260 190 c0 -5 18 -10 40 -10 22 0 40 5 40 10 0 6 -18 10 -40 10 -22
0 -40 -4 -40 -10z"/>
</g>
</svg>
