<?xml version="1.0" standalone="no"?>
<!DOCTYPE svg PUBLIC "-//W3C//DTD SVG 20010904//EN"
 "http://www.w3.org/TR/2001/REC-SVG-20010904/DTD/svg10.dtd">
<svg version="1.0" xmlns="http://www.w3.org/2000/svg"
 width="50.000000pt" height="50.000000pt" viewBox="0 0 50.000000 50.000000"
 preserveAspectRatio="xMidYMid meet">

<g transform="translate(0.000000,50.000000) scale(0.100000,-0.100000)"
fill="#000000" stroke="none">
<path d="M227 434 c-4 -4 -7 -16 -7 -26 0 -10 -6 -18 -13 -18 -8 0 -24 -11
-37 -25 -19 -20 -24 -40 -30 -108 -4 -53 -13 -92 -23 -108 -25 -35 -22 -39 32
-39 40 0 51 -4 56 -19 3 -11 15 -23 26 -26 27 -9 57 3 64 26 5 15 16 19 56 19
54 0 57 4 32 40 -12 17 -20 52 -24 107 -4 69 -9 87 -29 108 -13 14 -29 25 -36
25 -7 0 -14 10 -16 23 -3 22 -36 36 -51 21z m33 -24 c0 -5 -4 -10 -10 -10 -5
0 -10 5 -10 10 0 6 5 10 10 10 6 0 10 -4 10 -10z m51 -59 c26 -27 29 -36 29
-96 0 -40 6 -78 15 -95 l16 -30 -121 0 -121 0 16 30 c9 17 15 55 15 95 0 60 3
69 29 96 20 20 39 29 61 29 22 0 41 -9 61 -29z m-33 -253 c-6 -17 -50 -17 -55
0 -3 8 6 12 27 12 21 0 30 -4 28 -12z"/>
<path d="M19 373 c-6 -16 -14 -47 -16 -70 -8 -62 23 -161 43 -141 2 3 -3 21
-11 41 -19 46 -19 108 0 154 18 42 18 43 5 43 -6 0 -15 -12 -21 -27z"/>
<path d="M455 384 c29 -70 29 -138 0 -208 -6 -14 -4 -17 5 -14 49 16 49 220 0
236 -9 3 -11 0 -5 -14z"/>
<path d="M61 339 c-6 -18 -11 -44 -11 -59 0 -35 19 -90 32 -90 5 0 6 9 1 23
-10 28 -10 106 0 135 5 13 4 22 -1 22 -6 0 -15 -14 -21 -31z"/>
<path d="M417 348 c4 -13 8 -43 8 -68 0 -25 -4 -55 -8 -67 -5 -14 -4 -23 1
-23 13 0 32 55 32 90 0 35 -19 90 -32 90 -5 0 -6 -9 -1 -22z"/>
</g>
</svg>
