<?xml version="1.0" standalone="no"?>
<!DOCTYPE svg PUBLIC "-//W3C//DTD SVG 20010904//EN"
 "http://www.w3.org/TR/2001/REC-SVG-20010904/DTD/svg10.dtd">
<svg version="1.0" xmlns="http://www.w3.org/2000/svg"
 width="32.000000pt" height="32.000000pt" viewBox="0 0 32.000000 32.000000"
 preserveAspectRatio="xMidYMid meet">

<g transform="translate(0.000000,32.000000) scale(0.100000,-0.100000)"
fill="#000000" stroke="none">
<path d="M40 242 c0 -5 8 -12 18 -14 19 -5 42 -75 45 -138 2 -30 5 -35 27 -35
21 0 25 5 25 28 -1 21 4 27 20 27 16 0 21 -6 20 -27 0 -23 4 -28 25 -28 22 0
25 5 26 35 1 19 9 56 18 83 l15 47 -84 0 c-50 0 -85 -4 -85 -10 0 -6 30 -10
70 -10 l70 0 -6 -27 c-4 -16 -9 -31 -11 -35 -7 -14 -113 -9 -117 5 -3 6 -10
32 -18 57 -10 34 -18 46 -35 48 -13 2 -23 -1 -23 -6z m100 -162 c0 -5 -4 -10
-10 -10 -5 0 -10 5 -10 10 0 6 5 10 10 10 6 0 10 -4 10 -10z m90 0 c0 -5 -4
-10 -10 -10 -5 0 -10 5 -10 10 0 6 5 10 10 10 6 0 10 -4 10 -10z"/>
</g>
</svg>
